HIERARCHY
ROOT joint_0
{
	OFFSET -212.520721 0.000000 434.227997
	CHANNELS 6 Xposition Yposition Zposition Zrotation Yrotation Xrotation 
	JOINT joint_1
	{
		OFFSET 2.474272 88.434311 -0.738785
		CHANNELS 3 Zrotation Yrotation Xrotation
		JOINT joint_2
		{
			OFFSET 0.103459 1.857837 10.548508
			CHANNELS 3 Zrotation Yrotation Xrotation
			JOINT joint_3
			{
				OFFSET 43.500008 -0.000038 0.000008
				CHANNELS 3 Zrotation Yrotation Xrotation
				JOINT joint_4
				{
					OFFSET 42.372196 0.000023 -0.000010
					CHANNELS 3 Zrotation Yrotation Xrotation
					JOINT joint_5
					{
						OFFSET 17.300007 0.000003 -0.000004
						CHANNELS 3 Zrotation Yrotation Xrotation
						End Site
						{
							OFFSET 0.000000 0.000000 0.000000
						}
					}
				}
			}
		}
		JOINT joint_6
		{
			OFFSET 0.103459 1.857834 -10.548512
			CHANNELS 3 Zrotation Yrotation Xrotation
			JOINT joint_7
			{
				OFFSET 43.500050 -0.000034 0.000002
				CHANNELS 3 Zrotation Yrotation Xrotation
				JOINT joint_8
				{
					OFFSET 42.372257 0.000015 0.000013
					CHANNELS 3 Zrotation Yrotation Xrotation
					JOINT joint_9
					{
						OFFSET 17.299990 -0.000006 0.000004
						CHANNELS 3 Zrotation Yrotation Xrotation
						End Site
						{
							OFFSET 0.000000 0.000000 0.000000
						}
					}
				}
			}
		}
		JOINT joint_10
		{
			OFFSET 6.901970 -2.603734 0.000004
			CHANNELS 3 Zrotation Yrotation Xrotation
			JOINT joint_11
			{
				OFFSET 12.588094 0.000009 0.000000
				CHANNELS 3 Zrotation Yrotation Xrotation
				JOINT joint_12
				{
					OFFSET 12.343201 -0.000005 -0.000001
					CHANNELS 3 Zrotation Yrotation Xrotation
					JOINT joint_13
					{
						OFFSET 25.832907 0.000011 0.000002
						CHANNELS 3 Zrotation Yrotation Xrotation
						JOINT joint_14
						{
							OFFSET 11.766597 0.000002 0.000004
							CHANNELS 3 Zrotation Yrotation Xrotation
							End Site
							{
								OFFSET 0.000000 0.000000 0.000000
							}
						}
					}
					JOINT joint_15
					{
						OFFSET 19.745907 -1.480370 6.000103
						CHANNELS 3 Zrotation Yrotation Xrotation
						JOINT joint_16
						{
							OFFSET 11.284124 -0.000017 -0.000018
							CHANNELS 3 Zrotation Yrotation Xrotation
							JOINT joint_17
							{
								OFFSET 33.000053 0.000005 0.000034
								CHANNELS 3 Zrotation Yrotation Xrotation
								JOINT joint_18
								{
									OFFSET 25.200001 0.000028 -0.000003
									CHANNELS 3 Zrotation Yrotation Xrotation
									End Site
									{
										OFFSET 0.000000 0.000000 0.000000
									}
								}
							}
						}
					}
					JOINT joint_19
					{
						OFFSET 19.746109 -1.480360 -6.000067
						CHANNELS 3 Zrotation Yrotation Xrotation
						JOINT joint_20
						{
							OFFSET 11.284139 0.000001 0.000006
							CHANNELS 3 Zrotation Yrotation Xrotation
							JOINT joint_21
							{
								OFFSET 33.000118 0.000020 0.000005
								CHANNELS 3 Zrotation Yrotation Xrotation
								JOINT joint_22
								{
									OFFSET 25.199759 0.000119 0.000422
									CHANNELS 3 Zrotation Yrotation Xrotation
									End Site
									{
										OFFSET 0.000000 0.000000 0.000000
									}
								}
							}
						}
					}
				}
			}
		}
	}
}
MOTION
Frames: 9
Frame Time: 0.016667
-212.520721 0.000000 434.227997 0.000000 -8.332734 0.000000 95.264038 0.237408 91.144104 179.747223 4.168000 176.188293 -23.159924 -1.195933 -0.605241 92.972572 0.364510 -0.750798 21.454552 0.003086 0.000000 147.970306 3.582905 177.665131 -56.841827 -6.580884 6.795271 87.350960 -2.827847 9.732169 21.454557 -0.003095 -0.000017 6.812724 -0.545234 -0.561749 3.618105 -1.072933 -1.140071 3.300007 -1.079663 -1.133570 10.272582 -2.289024 13.644563 6.759229 -13.465465 14.791989 -170.431213 -74.296745 -11.196170 -50.992817 46.024063 11.283331 -54.441864 -11.943920 1.693315 5.996137 -2.723810 46.292751 -164.218063 74.754066 17.562344 3.451645 -55.197037 -38.822781 -37.926899 16.366396 -1.521148 7.227557 3.629426 -14.671494 
-212.770386 0.000000 435.103271 0.000000 -8.911525 0.000000 95.068863 0.320852 90.834511 -179.282166 3.970639 176.151794 -22.668095 -1.243420 -1.051564 93.298332 0.642532 -0.919533 21.454548 0.003095 0.000002 147.609207 3.149706 177.348190 -54.667419 -6.385998 7.306620 87.211975 -3.238216 9.414119 21.454552 -0.003109 -0.000017 6.815210 -0.479811 -0.628283 3.622937 -0.940049 -1.271117 3.304862 -0.947564 -1.265413 10.453925 -3.407183 13.531276 7.315395 -12.838034 14.146789 -169.583847 -74.333351 -12.065845 -51.548096 45.781639 9.629669 -56.883892 -11.751200 1.764988 5.711256 -2.991595 46.638588 -164.320724 74.840607 17.456617 4.087285 -56.262905 -39.965630 -36.019501 15.814176 -1.438820 7.587497 4.137982 -12.954500 
-213.052582 0.000000 435.985626 0.000000 -9.466508 0.000000 94.890121 0.347631 90.520042 -178.386887 3.777223 176.170227 -22.237387 -1.327154 -1.535042 93.654808 0.947326 -1.075860 21.454548 0.003094 0.000001 147.307846 2.720465 176.964874 -52.267601 -6.192128 7.853300 87.123604 -3.662229 9.203450 21.454552 -0.003108 -0.000017 6.807305 -0.424533 -0.701492 3.606994 -0.827343 -1.415731 3.288953 -0.835735 -1.410704 10.557371 -4.339553 13.373249 7.843905 -12.281837 13.536585 -168.883514 -74.443535 -12.784600 -51.926281 45.531212 8.124514 -58.935898 -11.611515 1.829436 5.479880 -3.401588 46.697598 -164.571182 74.809799 17.200043 4.684271 -56.861252 -41.432571 -34.364113 15.202353 -1.360724 7.959061 4.070276 -11.660480 
-213.365265 0.000000 436.875549 0.000000 -9.997940 0.000000 94.703918 0.356017 90.205269 -177.479294 3.569649 176.226471 -21.786695 -1.432547 -2.026464 94.017105 1.255658 -1.252882 21.454552 0.003091 -0.000001 147.097015 2.292965 176.660172 -49.807613 -6.070134 8.393944 86.962273 -4.089653 8.901479 21.454556 -0.003103 -0.000017 6.799169 -0.371764 -0.779741 3.590503 -0.719519 -1.570508 3.272500 -0.728856 -1.566128 10.608905 -5.104995 13.175729 8.307757 -11.815073 12.967217 -168.266129 -74.590263 -13.418042 -52.137779 45.285248 6.844292 -60.588131 -11.567221 1.887163 5.259404 -3.941059 46.613754 -164.771774 74.709312 16.994984 5.198223 -57.118053 -43.079205 -32.936630 14.544515 -1.286845 8.301349 3.565370 -10.890737 
-213.706345 0.000000 437.773468 0.000000 -10.506104 0.000000 94.487633 0.384027 89.894646 -176.473648 3.331002 176.302658 -21.238342 -1.544246 -2.497276 94.361740 1.545040 -1.483581 21.454556 0.003091 -0.000001 147.004898 1.866805 176.576538 -47.453072 -6.082740 8.881516 86.614311 -4.513258 8.316396 21.454556 -0.003105 -0.000017 6.800724 -0.314061 -0.861361 3.593193 -0.601621 -1.731944 3.275232 -0.611940 -1.728274 10.634787 -5.722085 12.942736 8.670945 -11.455894 12.443769 -167.676147 -74.736237 -14.023064 -52.194077 45.055103 5.862141 -61.830303 -11.658531 1.939348 5.006456 -4.595314 46.530144 -164.734512 74.587082 17.033895 5.594181 -57.161018 -44.771046 -31.713015 13.855020 -1.216492 8.592322 2.763635 -10.738211 
-214.073807 0.000000 438.679779 0.000000 -10.991308 0.000000 94.255623 0.451636 89.598701 -175.361588 3.074196 176.397339 -20.636003 -1.651431 -2.942452 94.727058 1.812111 -1.775464 21.454556 0.003096 0.000000 147.040939 1.463806 176.780396 -45.341805 -6.228445 9.302761 86.249916 -4.937596 7.463635 21.454556 -0.003111 -0.000019 6.813476 -0.252503 -0.944160 3.618065 -0.475806 -1.895665 3.300143 -0.487114 -1.892754 10.683588 -6.201174 12.678176 8.921020 -11.191258 11.968145 -167.166122 -74.869263 -14.545903 -52.095161 44.849052 5.156105 -62.642223 -11.841373 1.982529 4.701423 -5.322444 46.533264 -164.412689 74.476242 17.364647 5.940478 -57.087566 -46.472832 -30.672585 13.178505 -1.151832 8.861184 1.799333 -11.109184 
-214.465576 0.000000 439.595032 0.000000 -11.453875 0.000000 94.059845 0.552880 89.335190 -174.232071 2.841951 176.526031 -20.164621 -1.748034 -3.383216 95.219299 2.075814 -2.103152 21.454556 0.003101 0.000002 147.190079 1.125440 177.240952 -43.576763 -6.432267 9.685232 86.329842 -5.357304 6.614610 21.454556 -0.003109 -0.000019 6.828376 -0.197074 -1.024922 3.647178 -0.362230 -2.055467 3.329289 -0.374497 -2.053245 10.826792 -6.543249 12.386238 9.076067 -10.967854 11.538336 -166.911835 -75.008522 -14.806377 -51.829475 44.672909 4.593503 -62.991806 -11.973808 2.005171 4.359449 -6.047920 46.629349 -163.920517 74.389717 17.870033 6.417522 -56.950748 -48.250282 -29.796965 12.595534 -1.097517 9.181622 0.792044 -11.683284 
-214.879578 0.000000 440.519623 0.000000 -11.894147 0.000000 93.803154 0.646756 89.110786 -173.137726 2.556401 176.604279 -19.781786 -1.780552 -3.786045 95.761650 2.313945 -2.459792 21.454552 0.003101 0.000002 147.399017 0.772206 177.933884 -42.277115 -6.655511 9.888818 86.232880 -5.611280 5.942275 21.454557 -0.003099 -0.000017 6.840609 -0.125763 -1.094745 3.670479 -0.217247 -2.192861 3.352620 -0.230338 -2.191517 11.046675 -6.772017 12.073466 9.169357 -10.744777 11.139981 -166.869934 -75.142128 -14.849087 -51.462883 44.542187 4.205380 -62.866333 -12.078126 2.007400 4.025748 -6.725321 46.739273 -163.215637 74.322739 18.593527 7.031471 -56.806904 -49.906693 -29.042933 12.137078 -1.053594 9.569884 -0.217848 -12.297547 
-215.313766 0.000000 441.453979 0.000000 -12.312480 0.000000 93.322990 0.675747 88.928604 -172.112183 2.087944 176.471054 -19.334549 -1.667547 -4.068738 96.182106 2.467290 -2.857546 21.454550 0.003093 0.000001 147.589081 0.278832 178.814423 -41.581032 -6.862284 9.697272 84.804146 -5.496747 5.537830 21.454556 -0.003097 -0.000015 6.848012 -0.002134 -1.143708 3.682878 0.031598 -2.286905 3.365047 0.017932 -2.287055 11.266685 -6.928908 11.748405 9.244619 -10.499744 10.751331 -166.846512 -75.232536 -14.872902 -51.105473 44.474300 4.133073 -62.263721 -12.287842 1.998828 3.766182 -7.331349 46.736351 -162.174988 74.255714 19.661636 7.685111 -56.711250 -51.108334 -28.352154 11.794865 -1.018603 9.996511 -1.228654 -12.905016 
